<?xml version="1.0" standalone="no"?>
<!DOCTYPE svg PUBLIC "-//W3C//DTD SVG 20010904//EN"
 "http://www.w3.org/TR/2001/REC-SVG-20010904/DTD/svg10.dtd">
<svg version="1.0" xmlns="http://www.w3.org/2000/svg"
 width="700.000000pt" height="700.000000pt" viewBox="0 0 700.000000 700.000000"
 preserveAspectRatio="xMidYMid meet">
<metadata>
Created by potrace 1.14, written by Peter Selinger 2001-2017
</metadata>
<g transform="translate(0.000000,700.000000) scale(0.100000,-0.100000)"
fill="#000000" stroke="none">
<path d="M651 6526 l-84 -84 70 -84 c39 -46 80 -92 90 -103 10 -11 43 -49 73
-85 30 -36 57 -67 60 -70 3 -3 57 -66 120 -140 63 -74 117 -137 120 -140 4 -3
91 -104 194 -225 104 -121 198 -231 210 -245 12 -14 174 -203 360 -420 186
-217 353 -411 370 -430 17 -19 56 -64 86 -100 74 -87 103 -121 116 -134 5 -6
62 -72 125 -146 63 -74 126 -148 140 -165 42 -48 120 -138 143 -165 12 -14 61
-71 110 -128 l89 -103 66 69 c36 38 172 179 301 312 265 273 259 268 576 596
127 131 282 292 344 357 l113 117 56 -59 c31 -33 103 -108 161 -169 58 -60
184 -191 280 -292 96 -100 193 -202 215 -225 22 -23 119 -124 215 -224 96
-101 217 -227 267 -280 51 -53 93 -101 93 -106 0 -6 -43 -53 -95 -105 l-95
-94 53 -22 c28 -12 133 -54 232 -93 99 -40 189 -77 200 -81 121 -55 497 -202
502 -197 2 2 -24 75 -56 163 -33 87 -117 314 -186 504 -70 190 -130 350 -134
357 -4 8 -35 -19 -86 -74 -44 -47 -97 -103 -117 -125 l-37 -38 -98 102 c-191
199 -311 324 -349 364 -22 23 -112 117 -201 210 -89 93 -182 191 -208 218
-110 117 -370 388 -482 505 l-123 126 -121 -125 c-321 -330 -906 -931 -1168
-1200 l-112 -115 -20 25 c-11 14 -33 39 -47 56 -15 17 -49 57 -77 89 -27 32
-68 79 -90 105 -22 25 -62 72 -90 104 -27 33 -55 64 -60 70 -6 6 -35 40 -65
76 -30 36 -57 67 -60 70 -3 3 -170 196 -370 430 -344 401 -595 694 -643 750
-12 14 -47 54 -77 90 -30 36 -57 67 -60 70 -3 3 -32 37 -65 75 -33 39 -62 72
-65 75 -3 3 -43 50 -90 105 -47 55 -99 116 -116 135 -17 19 -64 73 -104 120
-78 92 -146 172 -178 208 -10 12 -23 22 -28 22 -5 0 -47 -38 -93 -84z"/>
<path d="M617 5292 c-2 -4 -3 -1071 -3 -2372 l1 -2365 485 -1 c267 0 490 2
497 4 8 3 11 441 11 1800 l0 1796 -142 166 c-79 91 -205 237 -280 325 -76 88
-150 173 -165 190 -14 16 -41 48 -60 70 -18 22 -55 65 -81 95 -26 30 -95 110
-153 177 -58 68 -108 119 -110 115z m182 -321 c25 -30 51 -59 56 -65 6 -6 37
-43 70 -81 33 -39 64 -75 70 -81 13 -15 23 -27 270 -314 115 -135 221 -258
235 -273 l25 -29 1 -1731 c0 -953 -1 -1737 -3 -1743 -3 -7 -129 -11 -413 -11
l-410 0 0 324 c0 681 0 2763 0 3426 l1 692 26 -30 c14 -16 46 -54 72 -84z"/>
<path d="M4354 3836 c-82 -86 -429 -444 -766 -790 l-137 -141 -1 -1175 0
-1175 494 0 c272 0 497 3 500 6 6 6 9 3360 3 3365 -2 2 -43 -39 -93 -90z m16
-1654 l0 -1539 -417 1 -418 1 -1 1112 0 1111 135 139 c368 378 696 713 698
713 2 0 3 -692 3 -1538z"/>
<path d="M2034 2110 c0 -1088 3 -1550 10 -1553 6 -2 229 -3 496 -3 l485 1 0
979 0 978 -194 227 c-106 124 -208 242 -225 261 -18 19 -152 176 -300 348
-147 171 -269 312 -270 312 -1 0 -2 -697 -2 -1550z m157 1240 c35 -41 68 -80
74 -86 5 -6 30 -35 55 -64 25 -29 50 -58 55 -64 6 -6 121 -139 255 -296 135
-157 259 -301 277 -320 18 -19 33 -44 34 -55 3 -58 4 -1792 1 -1806 -3 -14
-45 -16 -415 -15 l-412 1 0 1393 c0 765 3 1391 6 1390 3 -2 34 -37 70 -78z"/>
<path d="M4870 2017 l0 -1462 489 0 c269 0 492 3 495 6 5 5 9 1336 6 1819 l0
65 -72 75 c-159 168 -250 264 -398 420 -85 90 -168 178 -185 195 -16 18 -93
99 -170 180 -77 81 -141 151 -143 156 -2 5 -8 9 -13 9 -5 0 -9 -583 -9 -1463z
m122 1221 c64 -70 431 -457 604 -638 50 -52 112 -117 137 -145 l47 -50 0 -881
0 -881 -415 0 -415 0 0 1314 c0 722 3 1313 6 1313 3 0 20 -15 36 -32z"/>
</g>
</svg>
